<svg width="32" height="32" viewBox="0 0 32 32" fill="none" xmlns="http://www.w3.org/2000/svg">
<g clip-path="url(#clip0)">
<path d="M31.8982 14.1571C31.8302 13.9944 31.7329 13.8464 31.6089 13.7224L27.6102 9.72374C27.0889 9.20374 26.2462 9.20374 25.7249 9.72374C25.2035 10.2451 25.2035 11.0891 25.7249 11.6091L27.4489 13.3331H20.0008C19.2635 13.3331 18.6675 13.9304 18.6675 14.6664C18.6675 15.4024 19.2635 15.9997 20.0008 15.9997H27.4488L25.7248 17.7237C25.2035 18.245 25.2035 19.089 25.7248 19.609C25.9848 19.8703 26.3261 19.9997 26.6675 19.9997C27.0089 19.9997 27.3502 19.8704 27.6102 19.609L31.6089 15.6103C31.7329 15.4876 31.8302 15.3396 31.8982 15.1756C32.0328 14.8504 32.0328 14.4824 31.8982 14.1571Z" fill="#70E864"/>
<path d="M22.6683 18.6667C21.931 18.6667 21.335 19.264 21.335 20V26.6667H16.0017V5.33331C16.0017 4.74531 15.615 4.22531 15.051 4.056L10.4203 2.66669H21.335V9.33337C21.335 10.0694 21.931 10.6667 22.6683 10.6667C23.4057 10.6667 24.0017 10.0694 24.0017 9.33337V1.33337C24.0017 0.597312 23.4057 0 22.6683 0H1.33502C1.28702 0 1.24433 0.02 1.19771 0.0253125C1.13502 0.032 1.07771 0.042625 1.01771 0.0573125C0.877709 0.0933125 0.751022 0.148 0.632397 0.222625C0.603084 0.241313 0.567084 0.242625 0.539084 0.263938C0.528334 0.272 0.524334 0.286688 0.513647 0.294688C0.368334 0.409313 0.247022 0.549313 0.159022 0.716C0.140334 0.752 0.136334 0.790688 0.121709 0.828C0.0790215 0.929313 0.0323965 1.028 0.0163965 1.14C0.00970899 1.18 0.021709 1.21731 0.0203965 1.256C0.019084 1.28269 0.00170898 1.30669 0.00170898 1.33331V28C0.00170898 28.636 0.451022 29.1827 1.07371 29.3067L14.407 31.9734C14.4937 31.9921 14.5817 32.0001 14.6683 32.0001C14.9737 32.0001 15.2737 31.8947 15.5137 31.6974C15.8217 31.4441 16.0017 31.0667 16.0017 30.6667V29.3334H22.6683C23.4057 29.3334 24.0017 28.7361 24.0017 28.0001V20C24.0017 19.264 23.4057 18.6667 22.6683 18.6667Z" fill="#70E864"/>
</g>
<defs>
<clipPath id="clip0">
<rect width="32" height="32" fill="white"/>
</clipPath>
</defs>
</svg>
