<svg width="29" height="29" viewBox="0 0 29 29" fill="none" xmlns="http://www.w3.org/2000/svg">
<path d="M19.282 17.0382C15.132 16.5252 11.591 13.6592 10.037 9.77717C9.34774 8.08174 9.0907 6.24158 9.28901 4.42217C9.29848 4.32817 9.28112 4.23341 9.23895 4.14888C9.19678 4.06434 9.13152 3.99348 9.05073 3.9445C8.96994 3.89553 8.87693 3.87044 8.78247 3.87215C8.68801 3.87386 8.59597 3.9023 8.51701 3.95417C5.09001 6.15617 2.90501 10.1212 3.26101 14.5732C3.70301 20.0972 8.22001 24.6292 13.743 25.0862C19.389 25.5542 24.265 21.9382 25.753 16.8732C25.871 16.4712 25.479 16.0992 25.092 16.2592C23.256 17.0195 21.2535 17.288 19.282 17.0382Z" fill="#70E864"/>
</svg>
